<svg width="57" height="57" viewBox="0 0 57 57" fill="none" xmlns="http://www.w3.org/2000/svg">
<ellipse cx="28.833" cy="28.5885" rx="28" ry="28.3832" fill="#9D90FA" fill-opacity="0.25"/>
<path d="M38.4334 27.755H28.6553V17.843C28.6553 17.7211 28.5568 17.6213 28.4365 17.6213H27.7256C26.2908 17.6198 24.8699 17.9055 23.5443 18.462C22.2187 19.0185 21.0146 19.8349 20.001 20.8643C19.003 21.8728 18.2081 23.0683 17.6604 24.3844C17.0916 25.7509 16.8018 27.2006 16.8018 28.6974C16.8018 30.1941 17.0916 31.641 17.6604 33.0075C18.21 34.3241 18.9975 35.5104 20.001 36.5277C21.0045 37.5449 22.1721 38.3432 23.4736 38.9003C24.8193 39.4791 26.2665 39.776 27.7283 39.7735C29.1631 39.7749 30.584 39.4892 31.9096 38.9327C33.2352 38.3762 34.4393 37.5598 35.4529 36.5305C36.4564 35.5132 37.2439 34.3297 37.7936 33.0103C38.3645 31.6462 38.6574 30.1792 38.6549 28.6974V27.9767C38.6522 27.8547 38.5537 27.755 38.4334 27.755ZM40.8369 26.2166L40.7658 25.435C40.5334 22.8849 39.4178 20.479 37.6186 18.6635C35.821 16.8428 33.4523 15.7163 30.9221 15.4787L30.1482 15.4066C30.0197 15.3955 29.9104 15.4953 29.9104 15.6256V26.261C29.9104 26.3829 30.0088 26.4827 30.1291 26.4827L40.6182 26.455C40.7467 26.4522 40.8479 26.3441 40.8369 26.2166Z" fill="#9D90FA"/>
</svg>
