<svg width="36" height="41" viewBox="0 0 36 41" fill="none" xmlns="http://www.w3.org/2000/svg">
<path fill-rule="evenodd" clip-rule="evenodd" d="M23.992 1.03523C23.5035 1.13021 22.7436 1.34732 22.2958 1.51015C21.8481 1.67298 20.8982 2.09362 20.1926 2.44641C19.487 2.79921 18.2658 3.51837 17.4788 4.04756C16.6918 4.57676 15.4706 5.51302 14.765 6.15077C14.0594 6.77495 13.0824 7.73835 12.594 8.29468C12.1055 8.83745 11.237 9.93654 10.64 10.7235C10.0565 11.5106 9.16098 12.8539 8.65892 13.7087C8.1433 14.5636 7.38343 16.0019 6.94922 16.8975C6.52858 17.793 5.9044 19.2314 5.57874 20.0862C5.23951 20.9411 4.81887 22.2573 4.62891 23.0036C4.37109 24.0619 4.27611 24.8354 4.22183 26.5315C4.16756 27.9563 4.20826 29.0554 4.31682 29.7203C4.4118 30.2766 4.62891 31.1314 4.79173 31.6199C4.95456 32.1084 5.26665 32.8411 5.47019 33.2482C5.67372 33.6553 6.10793 34.3337 6.42002 34.7408C6.73211 35.1479 7.28844 35.7314 7.65481 36.0299C8.02117 36.3284 8.78104 36.8304 9.33738 37.1425C9.89371 37.4682 11.2778 38.0924 12.3904 38.5266C13.5167 38.9744 15.1585 39.5578 16.0541 39.8292C16.9496 40.1006 18.4151 40.4398 19.3106 40.6026C20.654 40.8333 21.3189 40.8605 23.11 40.8062C24.6976 40.7519 25.5796 40.6705 26.3666 40.4534C26.9636 40.3041 27.9677 39.9106 28.5919 39.5985C29.3246 39.2322 30.0166 38.7437 30.5051 38.2688C30.9258 37.8481 31.4414 37.1697 31.6585 36.7083C31.9977 36.0163 32.0656 35.7042 32.1063 34.6051C32.147 33.5739 32.0927 33.0582 31.8213 32.027C31.6449 31.3214 31.2379 30.1409 30.9258 29.4217C30.6273 28.689 30.0574 27.5221 29.6639 26.8436C29.2703 26.1516 28.4969 24.9711 27.927 24.2248C27.3707 23.4785 26.4208 22.3794 25.8238 21.7688C25.2268 21.1717 24.2362 20.2897 23.6256 19.8013C23.0286 19.3263 22.4315 18.9328 22.3094 18.9328C22.1873 18.9328 22.0923 18.96 22.0923 19.0007C22.0923 19.0414 22.4722 19.4349 22.92 19.8827C23.3814 20.3305 24.087 21.0903 24.4805 21.5788C24.874 22.0673 25.2132 22.5151 25.2132 22.5965C25.2132 22.6779 24.589 22.0673 23.8156 21.2396C23.0421 20.4119 22.0787 19.4892 21.6717 19.1771C21.2646 18.865 20.5726 18.3901 20.1248 18.1187C19.677 17.8609 18.8222 17.4809 18.2251 17.2774C17.3703 17.006 16.8546 16.9246 15.7827 16.9246C14.8871 16.911 14.168 16.9925 13.6795 17.1417C13.2724 17.2638 12.6482 17.5488 12.2954 17.7795L11.6441 18.1865C11.427 17.5081 11.3727 17.0874 11.3727 16.8296C11.3727 16.5718 11.4949 15.9612 11.6305 15.4727C11.7798 14.9842 12.2005 14.1294 12.5804 13.5731C12.9467 13.0167 13.6659 12.1076 14.168 11.5513C14.6836 11.0085 15.5927 10.1808 16.1898 9.73301C16.7868 9.28523 17.8045 8.66105 18.4694 8.33539C19.1207 8.00973 20.1791 7.57552 20.844 7.37199C21.9159 7.04633 22.228 7.00562 24.2634 7.00562C26.0002 6.99205 26.7465 7.04633 27.5878 7.24987C28.1848 7.38556 29.1618 7.67051 29.7588 7.88761C30.3559 8.10472 31.1429 8.51179 31.5092 8.79674C31.8892 9.06812 32.3777 9.55661 32.5948 9.8687C32.8254 10.1808 33.1511 10.6693 33.3275 10.9542C33.4903 11.2392 33.816 11.5784 34.0331 11.7141C34.2638 11.8362 34.603 11.9448 34.793 11.9448C34.9965 11.9448 35.295 11.7819 35.5393 11.5377C35.8514 11.212 35.9328 11.0085 35.9328 10.5607C35.9328 10.1672 35.7971 9.74658 35.5393 9.2988C35.3357 8.93243 34.7658 8.26755 34.2909 7.83334C33.816 7.39913 32.9611 6.81566 32.4048 6.53071C31.8485 6.23219 30.9936 5.87939 30.5051 5.73013C30.0166 5.58087 29.0397 5.3909 28.3341 5.29592C27.5064 5.1738 26.5023 5.14666 25.5524 5.20094C24.7247 5.25521 23.5442 5.41804 22.9065 5.55373C22.2687 5.70299 21.2917 5.98794 20.7354 6.17791C20.1791 6.38145 19.3242 6.74781 18.8357 6.99205C18.3472 7.2363 17.3974 7.8062 16.7325 8.25398C16.0676 8.70176 14.9957 9.54304 14.3715 10.1401C13.7473 10.7235 12.7975 11.7819 12.2683 12.4875C11.7255 13.1931 11.0199 14.2651 10.6943 14.8621C10.1787 15.7712 10.0701 15.8934 10.043 15.6084C10.0158 15.4184 10.1922 14.6857 10.4229 13.9801C10.6536 13.2745 11.0878 12.2297 11.3863 11.6734C11.6848 11.1171 12.2547 10.2351 12.6618 9.70587C13.0553 9.19024 13.8287 8.33539 14.3715 7.81977C14.9278 7.29057 15.8912 6.53071 16.529 6.12363C17.1667 5.71656 18.1844 5.14666 18.8086 4.86171C19.4192 4.57676 20.5183 4.16969 21.2375 3.95258C21.9702 3.74904 22.9879 3.49123 23.5171 3.40982C24.0463 3.31483 25.1725 3.19271 26.0273 3.12487C27.235 3.02988 27.6421 2.94847 27.832 2.7585C27.9677 2.62281 28.0763 2.33786 28.0763 2.10719C28.0763 1.86294 27.9541 1.59156 27.7642 1.41516C27.5878 1.25233 27.3164 1.0488 27.14 0.967384C26.9772 0.88597 26.3937 0.818125 25.8509 0.831694C25.3217 0.831694 24.4805 0.926677 23.992 1.03523ZM14.1951 20.9685C13.8288 21.077 13.3403 21.3756 13.0961 21.6198C12.8111 21.8912 12.594 22.2982 12.4854 22.7325C12.3769 23.126 12.3498 23.6416 12.404 23.9537C12.4447 24.2522 12.6211 24.7678 12.7704 25.107C12.9332 25.4463 13.3946 26.0569 13.8152 26.4775C14.2901 26.966 14.9414 27.4274 15.647 27.7802C16.2441 28.0787 17.1939 28.4993 17.7502 28.6893C18.3066 28.8928 19.772 29.3677 21.0068 29.7477C22.5401 30.2226 23.5035 30.4397 24.0327 30.4533C24.7383 30.4668 24.8604 30.4261 25.159 30.1005C25.3489 29.8698 25.4846 29.5441 25.4846 29.3135C25.4846 29.0964 25.3896 28.6757 25.2675 28.4043C25.159 28.1194 24.7926 27.5223 24.4805 27.0746C24.1549 26.6268 23.11 25.4598 22.1466 24.4693C21.0747 23.3702 20.0299 22.4611 19.4464 22.0811C18.9172 21.7555 18.1302 21.3484 17.6824 21.172C17.2075 20.9956 16.4476 20.8464 15.8506 20.8192C15.1857 20.7785 14.6158 20.8328 14.1816 20.9685H14.1951Z" fill="#D6D6D6"/>
<path d="M3.63836 19.6384C3.16345 20.2219 2.55284 21.0903 2.26789 21.5788C1.98294 22.0673 1.58943 22.8814 1.3859 23.4106C1.18236 23.9398 0.910978 24.7811 0.775288 25.3103C0.639597 25.8395 0.463199 26.8979 0.381785 27.6849C0.286801 28.6619 0.286801 29.5303 0.381785 30.4666C0.463199 31.2129 0.639597 32.2848 0.788857 32.8411C0.924548 33.3975 1.2095 34.2523 1.41303 34.7408C1.63014 35.2293 1.92866 35.8535 2.10506 36.1384C2.28146 36.4098 2.64782 36.8983 2.9192 37.1968C3.20415 37.5089 3.80119 38.0245 4.24897 38.3366C4.69675 38.6623 5.42948 39.0965 5.87726 39.3272C6.32504 39.5443 7.28844 39.9242 8.00761 40.1549C8.74034 40.3855 9.6766 40.6162 10.0972 40.6841C10.64 40.7519 10.8842 40.7383 11.0064 40.6026C11.1149 40.485 11.124 40.3901 11.0335 40.3177C10.9521 40.2499 10.3415 39.9106 9.6766 39.5578C8.99815 39.205 8.00761 38.608 7.45127 38.2145C6.89494 37.8346 6.09437 37.1832 5.68729 36.7762C5.26665 36.3691 4.66961 35.6635 4.37109 35.2157C4.059 34.7679 3.69264 34.1573 3.54338 33.8588C3.38055 33.5603 3.13631 32.9226 2.98705 32.4341C2.83779 31.9456 2.63425 31.0093 2.55284 30.3309C2.43072 29.3946 2.41715 28.7704 2.53927 27.617C2.63425 26.8029 2.82422 25.541 2.98705 24.8354C3.13631 24.1298 3.47553 22.9357 3.73335 22.1894C3.99116 21.4431 4.39823 20.4661 4.61534 20.0184C4.83244 19.5706 4.99527 19.0821 4.96813 18.9328C4.94099 18.7836 4.83244 18.6479 4.69675 18.6208C4.56106 18.5936 4.18113 18.9464 3.63836 19.6384Z" fill="#D6D6D6"/>
</svg>
